:FULLY-SPECIFIED
:FORCE-ALL-JOINTS-BE-3DOF
:DEGREES
404
root 9.69473 16.9087 20.4455 6.70169 -1.54013 -7.25785
lfemur -43.568 -4.98972 -8.29041
ltibia 20.1893 0 0
lfoot -13.938 15.2201 0
ltoes -10.645 0 0
rfemur 18.7291 5.81319 32.7516
rtibia -2.37948 0 0
rfoot -5.16725 6.62073 0
rtoes -11.5541 0 0
lowerback -7.96651 3.37221 3.28046
upperback -0.0159012 4.02536 3.83693
thorax 4.39281 2.02517 2.61274
lowerneck -19.2695 -6.36954 -13.8609
upperneck 21.4176 -8.1346 13.3701
head 11.3036 -3.30077 5.97871
lclavicle -7.08825e-15 1.33373e-15 0
lhumerus -53.2064 -8.9028 95.5222
lradius 26.3887 0 0
lwrist 6.85532 0 0
lhand -8.79543 -21.8175 0
lfingers 7.12502 0 0
lthumb 17.1434 7.44702 0
rclavicle -7.08825e-15 1.33373e-15 0
rhumerus -27.2253 15.0552 -84.7847
rradius 38.9384 0 0
rwrist -18.7239 0 0
rhand -29.7929 -22.4114 0
rfingers 7.12502 0 0
rthumb -3.11752 -52.3688 0
405
root 9.71506 16.8938 20.6143 6.80057 -1.46021 -7.20258
lfemur -43.7761 -4.69389 -8.69509
ltibia 20.7663 0 0
lfoot -13.0398 14.8826 0
ltoes -9.92028 0 0
rfemur 19.5518 5.70759 32.624
rtibia -2.96435 0 0
rfoot -4.22119 6.58523 0
rtoes -12.1804 0 0
lowerback -8.05195 3.37389 3.22301
upperback -0.0968097 4.03702 3.7651
thorax 4.35595 2.0299 2.57147
lowerneck -19.2944 -6.42123 -13.9257
upperneck 21.4331 -8.20701 13.4425
head 11.3337 -3.32999 6.00658
lclavicle -6.9625e-15 1.00751e-15 0
lhumerus -53.2382 -8.78006 95.3894
lradius 26.193 0 0
lwrist 6.55808 0 0
lhand -8.63964 -21.8445 0
lfingers 7.12502 0 0
lthumb 17.2934 7.40708 0
rclavicle -6.9625e-15 1.00751e-15 0
rhumerus -27.5982 14.7417 -84.9901
rradius 38.5789 0 0
rwrist -18.4376 0 0
rhand -29.7082 -22.4867 0
rfingers 7.12502 0 0
rthumb -3.0357 -52.4454 0
406
root 9.73598 16.8783 20.7856 6.90453 -1.36206 -7.13355
lfemur -43.9878 -4.3413 -9.16131
ltibia 21.4764 0 0
lfoot -12.0679 14.5008 0
ltoes -9.13884 0 0
rfemur 20.3655 5.59455 32.4806
rtibia -3.52049 0 0
rfoot -3.24041 6.53735 0
rtoes -12.885 0 0
lowerback -8.13736 3.36909 3.15385
upperback -0.18518 4.04182 3.68513
thorax 4.31126 2.03104 2.52725
lowerneck -19.3239 -6.47705 -13.992
upperneck 21.4511 -8.28559 13.5187
head 11.367 -3.36157 6.03517
lclavicle -6.88135e-15 6.02729e-16 0
lhumerus -53.2559 -8.66306 95.2448
lradius 25.9827 0 0
lwrist 6.24429 0 0
lhand -8.48311 -21.8758 0
lfingers 7.12502 0 0
lthumb 17.444 7.36252 0
rclavicle -6.88135e-15 6.02729e-16 0
rhumerus -28.0117 14.4129 -85.2082
rradius 38.2079 0 0
rwrist -18.1423 0 0
rhand -29.623 -22.5806 0
rfingers 7.12502 0 0
rthumb -2.9534 -52.5406 0
407
root 9.75745 16.8623 20.959 7.01226 -1.24857 -7.05118
lfemur -44.198 -3.93974 -9.68191
ltibia 22.2996 0 0
lfoot -11.0374 14.0809 0
ltoes -8.31167 0 0
rfemur 21.1605 5.47411 32.3212
rtibia -4.03551 0 0
rfoot -2.23405 6.47647 0
rtoes -13.6525 0 0
lowerback -8.22181 3.35817 3.07374
upperback -0.28012 4.04005 3.598
thorax 4.25916 2.02878 2.48073
lowerneck -19.3568 -6.53575 -14.059
upperneck 21.4715 -8.36859 13.5973
head 11.4028 -3.39482 6.06418
lclavicle -6.83788e-15 1.32523e-16 0
lhumerus -53.2583 -8.55115 95.0898
lradius 25.7597 0 0
lwrist 5.91592 0 0
lhand -8.32751 -21.9111 0
lfingers 7.12502 0 0
lthumb 17.5938 7.31399 0
rclavicle -6.83788e-15 1.32523e-16 0
rhumerus -28.4613 14.0724 -85.437
rradius 37.8282 0 0
rwrist -17.8402 0 0
rhand -29.5384 -22.6908 0
rfingers 7.12502 0 0
rthumb -2.87169 -52.652 0
408
root 9.77942 16.8462 21.1341 7.12239 -1.1226 -6.95588
lfemur -44.4016 -3.49698 -10.2497
ltibia 23.2158 0 0
lfoot -9.9632 13.6295 0
ltoes -7.44975 0 0
rfemur 21.9272 5.34628 32.1457
rtibia -4.49704 0 0
rfoot -1.21126 6.40196 0
rtoes -14.4672 0 0
lowerback -8.30435 3.34149 2.98343
upperback -0.380737 4.032 3.5047
thorax 4.20007 2.02328 2.43257
lowerneck -19.392 -6.59607 -14.1261
upperneck 21.494 -8.45423 13.6771
head 11.4403 -3.42906 6.09331
lclavicle -6.82521e-15 -3.89971e-16 0
lhumerus -53.2443 -8.44366 94.9257
lradius 25.526 0 0
lwrist 5.57492 0 0
lhand -8.17452 -21.9499 0
lfingers 7.12502 0 0
lthumb 17.741 7.26213 0
rclavicle -6.82521e-15 -3.89971e-16 0
rhumerus -28.9428 13.7238 -85.6747
rradius 37.4422 0 0
rwrist -17.5336 0 0
rhand -29.4555 -22.8148 0
rfingers 7.12502 0 0
rthumb -2.79164 -52.7772 0
409
root 9.80186 16.8303 21.3104 7.2336 -0.987053 -6.84806
lfemur -44.5935 -3.0208 -10.8576
ltibia 24.2049 0 0
lfoot -8.86043 13.1527 0
ltoes -6.56407 0 0
rfemur 22.6556 5.21111 31.9539
rtibia -4.89271 0 0
rfoot -0.181192 6.31321 0
rtoes -15.3138 0 0
lowerback -8.38404 3.3194 2.88368
upperback -0.48614 4.01797 3.40619
thorax 4.13438 2.01474 2.38339
lowerneck -19.4281 -6.65675 -14.1925
upperneck 21.5186 -8.54075 13.757
head 11.479 -3.4636 6.12226
lclavicle -6.83644e-15 -9.51616e-16 0
lhumerus -53.2127 -8.33995 94.7539
lradius 25.2839 0 0
lwrist 5.22326 0 0
lhand -8.02582 -21.9916 0
lfingers 7.12502 0 0
lthumb 17.8841 7.20759 0
rclavicle -6.83644e-15 -9.51616e-16 0
rhumerus -29.452 13.3707 -85.9192
rradius 37.0525 0 0
rwrist -17.2244 0 0
rhand -29.3754 -22.9503 0
rfingers 7.12502 0 0
rthumb -2.71432 -52.9138 0
410
root 9.82472 16.8149 21.4875 7.34454 -0.844789 -6.72813
lfemur -44.7687 -2.519 -11.4983
ltibia 25.2469 0 0
lfoot -7.7441 12.6571 0
ltoes -5.66561 0 0
rfemur 23.3361 5.06862 31.7456
rtibia -5.21015 0 0
rfoot 0.847014 6.20959 0
rtoes -16.1766 0 0
lowerback -8.45994 3.29226 2.77524
upperback -0.595436 3.99826 3.30345
thorax 4.06252 2.00334 2.33386
lowerneck -19.464 -6.71654 -14.2575
upperneck 21.5451 -8.62638 13.8357
head 11.518 -3.49777 6.15071
lclavicle -6.86468e-15 -1.53928e-15 0
lhumerus -53.1623 -8.23936 94.5757
lradius 25.0352 0 0
lwrist 4.86289 0 0
lhand -7.8831 -22.0357 0
lfingers 7.12502 0 0
lthumb 18.0214 7.15102 0
rclavicle -6.86468e-15 -1.53928e-15 0
rhumerus -29.9848 13.0166 -86.1686
rradius 36.6617 0 0
rwrist -16.915 0 0
rhand -29.2993 -23.095 0
rfingers 7.12502 0 0
rthumb -2.64081 -53.0596 0
411
root 9.84797 16.8002 21.665 7.45388 -0.698691 -6.59649
lfemur -44.9219 -1.99934 -12.1648
ltibia 26.3216 0 0
lfoot -6.62926 12.1489 0
ltoes -4.76534 0 0
rfemur 23.9588 4.91885 31.5207
rtibia -5.43698 0 0
rfoot 1.86421 6.09048 0
rtoes -17.0403 0 0
lowerback -8.53109 3.26044 2.65886
upperback -0.707732 3.97315 3.19745
thorax 3.98489 1.98926 2.28462
lowerneck -19.4983 -6.77419 -14.3204
upperneck 21.5734 -8.70936 13.912
head 11.5568 -3.53088 6.17837
lclavicle -6.90302e-15 -2.13982e-15 0
lhumerus -53.0919 -8.14123 94.3925
lradius 24.782 0 0
lwrist 4.49578 0 0
lhand -7.74802 -22.0818 0
lfingers 7.12502 0 0
lthumb 18.1514 7.09306 0
rclavicle -6.90302e-15 -2.13982e-15 0
rhumerus -30.5367 12.6652 -86.4209
rradius 36.2725 0 0
rwrist -16.6073 0 0
rhand -29.2282 -23.2465 0
rfingers 7.12502 0 0
rthumb -2.57218 -53.212 0
412
root 9.87155 16.7864 21.8426 7.56027 -0.551636 -6.45358
lfemur -45.0482 -1.46961 -12.8498
ltibia 27.409 0 0
lfoot -5.53094 11.6346 0
ltoes -3.87425 0 0
rfemur 24.514 4.76183 31.279
rtibia -5.56083 0 0
rfoot 2.86124 5.95526 0
rtoes -17.8892 0 0
lowerback -8.59656 3.22428 2.5353
upperback -0.822137 3.94294 3.08918
thorax 3.90192 1.97269 2.23631
lowerneck -19.5299 -6.82844 -14.3803
upperneck 21.6033 -8.78791 13.9847
head 11.5946 -3.56225 6.20493
lclavicle -6.94458e-15 -2.7401e-15 0
lhumerus -53.0003 -8.04492 94.2055
lradius 24.5264 0 0
lwrist 4.12387 0 0
lhand -7.62226 -22.1294 0
lfingers 7.12502 0 0
lthumb 18.2724 7.03436 0
rclavicle -6.94458e-15 -2.7401e-15 0
rhumerus -31.1036 12.32 -86.6743
rradius 35.8873 0 0
rwrist -16.3036 0 0
rhand -29.1633 -23.4024 0
rfingers 7.12502 0 0
rthumb -2.50949 -53.3687 0
413
root 9.89543 16.774 22.0197 7.66237 -0.406502 -6.29979
lfemur -45.1424 -0.937603 -13.5463
ltibia 28.489 0 0
lfoot -4.46418 11.1205 0
ltoes -3.00332 0 0
rfemur 24.9919 4.59759 31.0204
rtibia -5.56934 0 0
rfoot 3.82897 5.8033 0
rtoes -18.7079 0 0
lowerback -8.6554 3.18416 2.40531
upperback -0.937759 3.90792 2.9796
thorax 3.814 1.95382 2.18958
lowerneck -19.5575 -6.87804 -14.4366
upperneck 21.6347 -8.86028 14.0526
head 11.6307 -3.5912 6.23009
lclavicle -6.98245e-15 -3.32699e-15 0
lhumerus -52.8864 -7.94976 94.0162
lradius 24.2704 0 0
lwrist 3.74914 0 0
lhand -7.50752 -22.178 0
lfingers 7.12502 0 0
lthumb 18.3828 6.97556 0
rclavicle -6.98245e-15 -3.32699e-15 0
rhumerus -31.6813 11.9846 -86.9266
rradius 35.5088 0 0
rwrist -16.006 0 0
rhand -29.1057 -23.5604 0
rfingers 7.12502 0 0
rthumb -2.45382 -53.5274 0
414
root 9.91958 16.7631 22.196 7.75885 -0.266166 -6.13554
lfemur -45.1994 -0.411086 -14.2469
ltibia 29.5416 0 0
lfoot -3.44402 10.6129 0
ltoes -2.16352 0 0
rfemur 25.3828 4.42616 30.7446
rtibia -5.45011 0 0
rfoot 4.75824 5.63399 0
rtoes -19.4808 0 0
lowerback -8.70667 3.14042 2.26965
upperback -1.0537 3.8684 2.86969
thorax 3.72155 1.93281 2.14508
lowerneck -19.5799 -6.92173 -14.4885
upperneck 21.6675 -8.92469 14.1145
head 11.6644 -3.61703 6.25355
lclavicle -7.00975e-15 -3.88734e-15 0
lhumerus -52.749 -7.85511 93.826
lradius 24.016 0 0
lwrist 3.37354 0 0
lhand -7.40546 -22.227 0
lfingers 7.12502 0 0
lthumb 18.481 6.91731 0
rclavicle -7.00975e-15 -3.88734e-15 0
rhumerus -32.2655 11.6625 -87.1761
rradius 35.1396 0 0
rwrist -15.7167 0 0
rhand -29.0564 -23.718 0
rfingers 7.12502 0 0
rthumb -2.40624 -53.6856 0
415
root 9.94393 16.7541 22.371 7.84836 -0.133508 -5.96123
lfemur -45.2142 0.102155 -14.9446
ltibia 30.5466 0 0
lfoot -2.4855 10.1184 0
ltoes -1.36584 0 0
rfemur 25.6768 4.24757 30.4514
rtibia -5.1908 0 0
rfoot 5.63991 5.4467 0
rtoes -20.1925 0 0
lowerback -8.74942 3.09342 2.12906
upperback -1.16908 3.82465 2.76043
thorax 3.62498 1.90987 2.10346
lowerneck -19.5959 -6.95826 -14.5354
upperneck 21.7015 -8.97938 14.1691
head 11.6951 -3.63907 6.27499
lclavicle -7.01957e-15 -4.40804e-15 0
lhumerus -52.5869 -7.7603 93.6361
lradius 23.7652 0 0
lwrist 2.99903 0 0
lhand -7.31776 -22.2761 0
lfingers 7.12502 0 0
lthumb 18.5653 6.86026 0
rclavicle -7.01957e-15 -4.40804e-15 0
rhumerus -32.8519 11.3575 -87.4207
rradius 34.7822 0 0
rwrist -15.4378 0 0
rhand -29.0166 -23.873 0
rfingers 7.12502 0 0
rthumb -2.36782 -53.841 0
416
root 9.96847 16.7472 22.5444 7.92956 -0.0114035 -5.77729
lfemur -45.1816 0.594338 -15.6323
ltibia 31.4839 0 0
lfoot -1.60364 9.64313 0
ltoes -0.621261 0 0
rfemur 25.8643 4.06186 30.1408
rtibia -4.77901 0 0
rfoot 6.46483 5.2408 0
rtoes -20.8274 0 0
lowerback -8.7827 3.04353 1.98431
upperback -1.283 3.77699 2.65279
thorax 3.52471 1.88517 2.06536
lowerneck -19.6041 -6.98638 -14.5764
upperneck 21.7366 -9.02258 14.2154
head 11.722 -3.65664 6.29412
lclavicle -7.00502e-15 -4.87592e-15 0
lhumerus -52.3989 -7.66468 93.4478
lradius 23.5202 0 0
lwrist 2.62757 0 0
lhand -7.24611 -22.3247 0
lfingers 7.12502 0 0
lthumb 18.6342 6.80504 0
rclavicle -7.00502e-15 -4.87592e-15 0
rhumerus -33.4364 11.0729 -87.6585
rradius 34.4393 0 0
rwrist -15.1714 0 0
rhand -28.9874 -24.0229 0
rfingers 7.12502 0 0
rthumb -2.33962 -53.9911 0
